<svg height="512pt" viewBox="-31 0 512 512" width="512pt" xmlns="http://www.w3.org/2000/svg"><path d="m331.6875 388.289062-7.273438-29.101562 43.144532-10.789062c30.878906-7.71875 52.441406-35.339844 52.441406-67.164063v-39.234375h-75v-30h105v69.234375c0 45.617187-30.910156 85.203125-75.164062 96.269531zm0 0" fill="#d9f2ff"/><path d="m360 182v110.148438c0 29.023437-5.628906 57.320312-16.738281 84.132812-11.101563 26.808594-27.132813 50.808594-47.652344 71.328125h-201.21875c-20.519531-20.519531-36.550781-44.519531-47.652344-71.328125-11.109375-26.8125-16.738281-55.109375-16.738281-84.132812v-110.148438zm0 0" fill="#e6ffff"/><path d="m360 182v110.148438c0 29.023437-5.628906 57.320312-16.738281 84.132812-11.101563 26.808594-27.132813 50.808594-47.652344 71.328125h-100.609375v-265.609375zm0 0" fill="#d9f2ff"/><path d="m0 422v15c0 41.351562 33.648438 75 75 75h240c41.359375 0 75-33.648438 75-75v-15zm0 0" fill="#8cf2f2"/><path d="m390 422v15c0 41.351562-33.640625 75-75 75h-120v-90zm0 0" fill="#57d9d4"/><path d="m129.570312 143.101562-19.140624-23.101562c6.171874-5.109375 9.570312-11.664062 9.570312-18.449219 0-6.785156-3.398438-13.335937-9.570312-18.449219-13.171876-10.914062-20.429688-25.667968-20.429688-41.550781 0-15.878906 7.257812-30.636719 20.429688-41.550781l19.140624 23.101562c-6.171874 5.113282-9.570312 11.664063-9.570312 18.449219 0 6.785157 3.398438 13.339844 9.570312 18.449219 13.171876 10.914062 20.429688 25.671875 20.429688 41.550781 0 15.882813-7.257812 30.636719-20.429688 41.550781zm0 0" fill="#ffda2d"/><path d="m225 101.550781c0 15.878907-7.261719 30.640625-20.429688 41.550781l-19.140624-23.101562c6.171874-5.109375 9.570312-11.660156 9.570312-18.449219 0-6.78125-3.398438-13.332031-9.570312-18.449219-13.167969-10.910156-20.429688-25.671874-20.429688-41.550781 0-15.878906 7.261719-30.628906 20.429688-41.550781l19.140624 23.101562c-6.171874 5.117188-9.570312 11.667969-9.570312 18.449219 0 6.789063 3.398438 13.339844 9.570312 18.449219 13.167969 10.921875 20.429688 25.671875 20.429688 41.550781zm0 0" fill="#ffda2d"/><g fill="#fdbf00"><path d="m195 41.550781v-30l9.570312 11.550781c-6.171874 5.117188-9.570312 11.667969-9.570312 18.449219zm0 0"/><path d="m225 101.550781c0 15.878907-7.261719 30.640625-20.429688 41.550781l-9.570312-11.550781v-90c0 6.789063 3.398438 13.339844 9.570312 18.449219 13.167969 10.921875 20.429688 25.671875 20.429688 41.550781zm0 0"/><path d="m279.570312 143.101562-19.140624-23.101562c6.171874-5.109375 9.570312-11.664062 9.570312-18.449219 0-6.785156-3.398438-13.335937-9.570312-18.449219-13.171876-10.914062-20.429688-25.667968-20.429688-41.550781 0-15.878906 7.257812-30.636719 20.429688-41.550781l19.140624 23.101562c-6.171874 5.113282-9.570312 11.664063-9.570312 18.449219 0 6.785157 3.398438 13.339844 9.570312 18.449219 13.171876 10.914062 20.429688 25.671875 20.429688 41.550781 0 15.882813-7.257812 30.636719-20.429688 41.550781zm0 0"/></g></svg>